<?xml version="1.0" encoding="UTF-8" standalone="no"?>
<svg
   version="1.1"
   id="svg2"
   width="755.90533"
   height="755.90533"
   viewBox="0 0 755.90533 755.90533"
   sodipodi:docname="logo-single.ai"
   xmlns:inkscape="http://www.inkscape.org/namespaces/inkscape"
   xmlns:sodipodi="http://sodipodi.sourceforge.net/DTD/sodipodi-0.dtd"
   xmlns="http://www.w3.org/2000/svg"
   xmlns:svg="http://www.w3.org/2000/svg">
  <defs
     id="defs6">
    <clipPath
       clipPathUnits="userSpaceOnUse"
       id="clipPath16">
      <path
         d="M 0,566.929 H 566.929 V 0 H 0 Z"
         id="path14" />
    </clipPath>
  </defs>
  <sodipodi:namedview
     id="namedview4"
     pagecolor="#ffffff"
     bordercolor="#000000"
     borderopacity="0.25"
     inkscape:showpageshadow="2"
     inkscape:pageopacity="0.0"
     inkscape:pagecheckerboard="0"
     inkscape:deskcolor="#d1d1d1" />
  <g
     id="g8"
     inkscape:groupmode="layer"
     inkscape:label="logo-single"
     transform="matrix(1.3333333,0,0,-1.3333333,0,755.90533)">
    <g
       id="g10">
      <g
         id="g12"
         clip-path="url(#clipPath16)">
        <g
           id="g18"
           transform="translate(451.6152,128.1)">
          <path
             d="M 0,0 C -18.747,0.188 -33.719,15.479 -33.624,34.342 -33.531,53.056 -18.118,68.138 0.698,67.926 19.379,67.716 34.5,52.484 34.409,33.969 34.317,15.067 18.863,-0.188 0,0 m -33.714,0.003 c -45.92,0.002 -91.841,-0.17 -137.758,0.107 -25.509,0.154 -49.492,6.774 -71.792,19.215 -28.414,15.853 -50.402,38.104 -64.418,67.49 -22.303,46.762 -21.639,93.571 1.475,140.021 1.121,2.252 2.424,3.042 4.969,3.033 27.85,-0.101 55.702,-0.063 83.553,-0.063 h 3.434 c -3.686,-2.829 -6.933,-5.071 -9.898,-7.637 -20.825,-18.019 -31.916,-40.704 -31.318,-68.376 0.873,-40.367 27.52,-73.282 66.627,-83.173 7.4,-1.871 14.929,-2.664 22.527,-2.672 43.042,-0.045 86.085,-0.021 129.128,-0.021 h 5.235 c -9.616,-10.058 -14.678,-21.079 -14.577,-34.095 0.1,-12.996 5.023,-24.07 14.025,-33.263 -0.264,-0.789 -0.814,-0.566 -1.212,-0.566 m -200.723,-0.004 c -32.093,0 -64.188,-0.133 -96.279,0.052 -18.289,0.105 -33.277,15.141 -33.502,33.033 -0.237,18.956 13.875,34.055 32.69,34.798 5.742,0.227 11.503,-0.036 17.252,0.087 1.928,0.041 2.878,-0.876 3.799,-2.341 13.497,-21.458 31.047,-38.897 52.418,-52.476 6.88,-4.371 14.016,-8.315 21.513,-11.562 0.796,-0.345 1.589,-0.7 2.383,-1.05 -0.091,-0.181 -0.183,-0.36 -0.274,-0.541 m -102.049,242.802 c -18.987,-0.08 -33.918,14.809 -34.125,34.029 -0.197,18.362 15.028,33.711 33.622,33.897 18.739,0.187 34.136,-14.873 34.322,-33.57 0.189,-18.97 -14.877,-34.275 -33.819,-34.356 M -171.138,80.949 c -38.833,1.265 -71.651,33.675 -71.543,74.68 0.402,40.962 32.737,73.697 73.911,74.084 41.949,0.396 75.51,-33.387 75.21,-75.225 -0.289,-40.335 -33.85,-74.963 -77.578,-73.539 m -130.784,229.77 c 45.801,0.003 91.611,0.537 137.4,-0.203 38.683,-0.627 72.572,-14.566 101.307,-40.664 22.922,-20.818 38.186,-46.31 45.885,-76.226 5.212,-20.249 6.198,-40.813 3.016,-61.533 -2.603,-16.944 -8.04,-32.943 -15.745,-48.225 -1.117,-2.216 -2.384,-3.031 -4.959,-3.019 -27.733,0.116 -55.467,0.072 -83.201,0.072 h -3.926 c 2.878,2.101 5.093,3.612 7.192,5.268 22.442,17.707 34.52,40.976 34.208,69.444 -0.498,45.198 -32.411,78.518 -72.145,85.748 -5.665,1.031 -11.416,1.391 -17.162,1.397 -43.039,0.041 -86.078,0.022 -129.117,0.022 h -4.748 c 19.71,21.479 18.029,49.18 0.222,67.411 0.372,0.908 1.178,0.508 1.773,0.508 m 201.968,0.019 c 31.166,0 62.331,0.065 93.497,-0.025 19.086,-0.054 34.238,-14.903 34.473,-33.515 0.234,-18.565 -14.507,-33.875 -33.199,-34.373 -5.516,-0.146 -11.04,0.013 -16.559,-0.047 -1.627,-0.018 -2.743,0.387 -3.693,1.877 -18.713,29.419 -44.067,51.109 -75.999,65.113 -0.196,0.086 -0.346,0.275 -1.196,0.97 z M 46.744,41.472 C 44.033,59.011 29.262,75.452 12.05,79.466 3.493,81.462 -5.104,80.72 -13.696,80.87 c -2.451,0.043 -3.643,-0.014 -2.168,3.034 5.662,11.711 9.836,23.973 12.524,36.706 6.8,32.212 4.279,63.717 -7.422,94.475 -1.854,4.875 -3.982,9.645 -6.14,14.84 4.512,0 8.536,-0.045 12.558,0.013 4.16,0.06 8.198,0.882 12.171,2.104 19.648,6.045 33.72,24.42 33.024,45.446 -0.89,26.858 -21.441,46.085 -48.553,46.092 -109.206,0.029 -218.412,0.012 -327.618,0.01 -5.318,0 -10.535,-0.761 -15.603,-2.349 -30.368,-9.519 -42.58,-46.549 -23.636,-72.068 9.788,-13.184 23.233,-19.352 39.578,-19.362 5.125,-0.004 10.25,-0.001 15.749,-0.001 -23.231,-49.735 -23.098,-99.091 -0.229,-148.779 -6.738,-0.415 -13.183,0.282 -19.581,-0.925 -28.46,-5.373 -45.447,-35.606 -35.047,-62.515 7.444,-19.261 24.112,-30.444 45.612,-30.447 109.206,-0.019 218.412,-0.016 327.618,0.017 4.245,0.001 8.476,0.34 12.641,1.407 23.697,6.075 38.653,29.014 34.962,52.904"
             style="fill:#3f7695;fill-opacity:1;fill-rule:nonzero;stroke:none"
             id="path20" />
        </g>
      </g>
    </g>
  </g>
</svg>
