<?xml version="1.0" encoding="UTF-8"?>
<svg id="_图层_1" data-name="图层 1" xmlns="http://www.w3.org/2000/svg" viewBox="0 0 337.53 114.87">
  <defs>
    <style>
      .cls-1 {
        fill: #3e7695;
      }
    </style>
  </defs>
  <path class="cls-1" d="M98.96,64.87c-.62-4.03-4.02-7.81-7.98-8.74-1.97-.46-3.94-.29-5.92-.32-.56,0-.84,0-.5-.7,1.3-2.69,2.26-5.51,2.88-8.44,1.56-7.41,.98-14.65-1.71-21.72-.43-1.12-.92-2.22-1.41-3.41,1.04,0,1.96,.01,2.89,0,.96-.01,1.88-.2,2.8-.48,4.52-1.39,7.75-5.62,7.59-10.45C97.4,4.43,92.67,0,86.44,0,61.33,0,36.21,0,11.1,0,9.88,0,8.68,.18,7.51,.54,.53,2.73-2.28,11.25,2.08,17.11c2.25,3.03,5.34,4.45,9.1,4.45,1.18,0,2.36,0,3.62,0-5.34,11.44-5.31,22.79-.05,34.21-1.55,.1-3.03-.07-4.5,.21-6.54,1.24-10.45,8.19-8.06,14.38,1.71,4.43,5.54,7,10.49,7,25.11,0,50.22,0,75.33,0,.98,0,1.95-.08,2.91-.32,5.45-1.4,8.89-6.67,8.04-12.16ZM65.22,2.96c7.17,0,14.33-.01,21.5,0,4.39,.01,7.87,3.43,7.93,7.71,.05,4.27-3.34,7.79-7.63,7.9-1.27,.03-2.54,0-3.81,.01-.37,0-.63-.09-.85-.43-4.3-6.76-10.13-11.75-17.48-14.97-.04-.02-.08-.06-.28-.22h.62Zm-46.44,0c10.53,0,21.07-.12,31.59,.05,8.9,.14,16.69,3.35,23.3,9.35,5.27,4.79,8.78,10.65,10.55,17.53,1.2,4.66,1.43,9.38,.69,14.15-.6,3.9-1.85,7.57-3.62,11.09-.26,.51-.55,.7-1.14,.69-6.38-.03-12.75-.02-19.13-.02h-.9c.66-.48,1.17-.83,1.65-1.21,5.16-4.07,7.94-9.42,7.87-15.97-.11-10.39-7.45-18.05-16.59-19.72-1.3-.24-2.62-.32-3.95-.32-9.9,0-19.79,0-29.69,0h-1.09c4.53-4.94,4.15-11.31,.05-15.5,.09-.21,.27-.12,.41-.12Zm30.07,52.83c-8.93-.29-16.48-7.74-16.45-17.17,.09-9.42,7.53-16.95,17-17.04,9.65-.09,17.36,7.68,17.29,17.3-.07,9.27-7.78,17.24-17.84,16.91ZM10.83,18.58c-4.37,.02-7.8-3.41-7.85-7.82-.05-4.22,3.46-7.75,7.73-7.79,4.31-.04,7.85,3.42,7.89,7.72,.04,4.36-3.42,7.88-7.78,7.9Zm23.47,55.83c-7.38,0-14.76,.03-22.14-.01-4.21-.02-7.65-3.48-7.7-7.6-.05-4.36,3.19-7.83,7.52-8,1.32-.05,2.65,0,3.97-.02,.44,0,.66,.2,.87,.54,3.1,4.93,7.14,8.94,12.05,12.07,1.58,1.01,3.22,1.91,4.95,2.66,.18,.08,.37,.16,.55,.24-.02,.04-.04,.08-.06,.12Zm46.16,0c-10.56,0-21.12,.04-31.68-.02-5.87-.04-11.38-1.56-16.51-4.42-6.53-3.65-11.59-8.76-14.81-15.52-5.13-10.75-4.98-21.52,.34-32.2,.26-.52,.56-.7,1.14-.7,6.4,.02,12.81,.01,19.21,.01h.79c-.85,.65-1.59,1.17-2.28,1.76-4.79,4.14-7.34,9.36-7.2,15.72,.2,9.28,6.33,16.85,15.32,19.13,1.7,.43,3.43,.61,5.18,.61,9.9,.01,19.79,0,29.69,0,.32,0,.63,0,1.2,0-2.21,2.31-3.38,4.85-3.35,7.84,.02,2.99,1.16,5.53,3.23,7.65-.06,.18-.19,.13-.28,.13Zm7.75,0c-4.31-.04-7.75-3.56-7.73-7.9,.02-4.3,3.57-7.77,7.89-7.72,4.3,.05,7.77,3.55,7.75,7.81-.02,4.35-3.57,7.85-7.91,7.81Z"/>
  <g>
    <path class="cls-1" d="M156.39,65.9c-1.05,.19-2.12,.28-3.21,.28-2.59,0-5.24-.92-7.94-2.76-2.52-1.73-4.28-3.87-5.3-6.42-.19-.41-.51-.66-.96-.73-4.13-.56-7.55-2.72-10.25-6.48-2.78-3.87-4.17-8.79-4.17-14.76,0-6.54,1.65-11.74,4.96-15.61,3.19-3.79,7.42-5.69,12.68-5.69s9.51,1.92,12.76,5.75c3.25,3.83,4.87,9.01,4.87,15.55,0,5.86-1.33,10.71-4,14.54-2.63,3.72-6.07,5.95-10.31,6.7-.19,.04-.24,.13-.17,.28,.83,1.65,2.13,2.95,3.92,3.89,1.78,.94,4.33,1.28,7.63,1.01,1.8-.11,2.93,.49,3.38,1.8,.45,1.31-.34,2.12-2.37,2.42l-1.52,.23Zm-23.13-18.31c2.23,3.12,5.21,4.68,8.93,4.68s6.7-1.56,8.93-4.68c2.23-3.12,3.35-7.28,3.35-12.48s-1.12-9.31-3.35-12.31c-2.24-3-5.22-4.51-8.96-4.51s-6.71,1.5-8.93,4.51c-2.22,3.01-3.32,7.11-3.32,12.31s1.12,9.36,3.35,12.48Z"/>
    <path class="cls-1" d="M176.56,55.82c-1.58-.53-2.05-1.73-1.41-3.61l11.95-35.27c.56-1.65,1.73-2.48,3.49-2.48h.51c1.77,0,2.93,.83,3.49,2.48l11.95,35.27c.64,1.84,.13,3.04-1.52,3.61-1.69,.53-2.82-.15-3.38-2.03l-3.16-10.09c-.11-.34-.34-.51-.68-.51h-14.09c-.34,0-.56,.17-.68,.51l-3.21,10.09c-.56,1.88-1.65,2.55-3.27,2.03Zm8-17.07c-.04,.19,.04,.28,.22,.28h11.95c.19,0,.26-.09,.23-.28l-5.92-19.49c-.11-.34-.21-.51-.28-.51s-.17,.17-.28,.51l-5.92,19.49Z"/>
    <path class="cls-1" d="M272.01,58.47c-1.13,1.05-2.35,.86-3.66-.56-2.25-2.48-4.3-7.92-6.14-16.34-1.5-6.69-2.57-15.64-3.21-26.88,0-.19-.09-.26-.28-.23l-9.97,1.41c-.26,.04-.39,.19-.39,.45v8.56c0,5.63-.23,10.12-.68,13.47-.79,5.41-2.24,10.03-4.34,13.86-.08,.15-.02,.21,.17,.17l10.65-2.25c.19-.04,.24-.15,.17-.34l-2.31-5.35c-.75-1.77-.6-2.89,.45-3.38,1.05-.49,2.01,.15,2.87,1.92,2.4,5,4.09,9.09,5.07,12.28,.6,1.88,.28,3-.96,3.38-1.2,.41-2.12-.3-2.76-2.14l-.9-2.76c-.08-.23-.22-.32-.45-.28l-10.76,2.48c-.94,.23-1.86,.47-2.76,.73-.86,.23-1.45,.44-1.75,.65-.3,.21-.94-.24-1.92-1.32-.98-1.09-.88-2.35,.28-3.78,2.25-2.74,3.89-6.99,4.9-12.73,.6-3.34,.9-8.26,.9-14.76v-8c0-.19-.09-.28-.28-.28l-10.2,1.01c-.22,.04-.34,.17-.34,.39v7.44c0,15.59-2.24,26.41-6.7,32.45-1.17,1.58-2.33,1.95-3.49,1.13-1.16-.86-1.16-2.08,0-3.66,1.99-2.7,3.61-7.34,4.85-13.92,.83-4.43,1.24-9.77,1.24-16v-8.17c.04-1.92,.99-2.95,2.87-3.1,4.47-.34,9.82-.94,16.06-1.8,6.65-.9,11.38-1.69,14.2-2.37,1.92-.45,3.02-.04,3.32,1.24,.26,1.32-.56,2.16-2.48,2.54-.3,.04-.45,.19-.45,.45,.6,10.56,1.6,19.01,2.99,25.35,1.77,8.11,3.7,13.24,5.8,15.38,1.35,1.39,1.48,2.61,.39,3.66Z"/>
    <path class="cls-1" d="M288.91,59.65c-1.39,0-2.08-.98-2.08-2.93V15.53c0-1.95,.98-2.93,2.93-2.93h39.44c1.95,0,2.93,.98,2.93,2.93V56.72c0,1.95-.71,2.93-2.14,2.93s-2.14-.98-2.14-2.93v-.23c0-.19-.09-.28-.28-.28h-36.34c-.19,0-.28,.09-.28,.28v.23c0,1.95-.68,2.93-2.03,2.93Zm2.03-27.89c0,.19,.09,.28,.28,.28h15.44c.19,0,.28-.09,.28-.28v-14.82c0-.19-.09-.28-.28-.28h-15.44c-.19,0-.28,.09-.28,.28v14.82Zm0,20c0,.19,.09,.28,.28,.28h15.44c.19,0,.28-.09,.28-.28v-15.27c0-.19-.09-.28-.28-.28h-15.44c-.19,0-.28,.09-.28,.28v15.27Zm20.17-20c0,.19,.09,.28,.28,.28h16.17c.19,0,.28-.09,.28-.28v-14.82c0-.19-.09-.28-.28-.28h-16.17c-.19,0-.28,.09-.28,.28v14.82Zm0,20c0,.19,.09,.28,.28,.28h16.17c.19,0,.28-.09,.28-.28v-15.27c0-.19-.09-.28-.28-.28h-16.17c-.19,0-.28,.09-.28,.28v15.27Z"/>
  </g>
</svg>