<?xml version="1.0" encoding="utf-8"?>
<!-- Generator: Adobe Illustrator 25.2.1, SVG Export Plug-In . SVG Version: 6.00 Build 0)  -->
<svg version="1.1" id="_图层_1" xmlns="http://www.w3.org/2000/svg" xmlns:xlink="http://www.w3.org/1999/xlink" x="0px" y="0px"
	 viewBox="0 0 337.5 114.9" style="enable-background:new 0 0 337.5 114.9;" xml:space="preserve">
<style type="text/css">
	.st0{fill:#FFFFFF;}
</style>
<path class="st0" d="M99,64.9c-0.6-4-4-7.8-8-8.7c-2-0.5-3.9-0.3-5.9-0.3c-0.6,0-0.8,0-0.5-0.7c1.3-2.7,2.3-5.5,2.9-8.4
	c1.6-7.4,1-14.7-1.7-21.7c-0.4-1.1-0.9-2.2-1.4-3.4c1,0,2,0,2.9,0c1,0,1.9-0.2,2.8-0.5c4.5-1.4,7.8-5.6,7.6-10.4
	C97.4,4.4,92.7,0,86.4,0C61.3,0,36.2,0,11.1,0C9.9,0,8.7,0.2,7.5,0.5c-7,2.2-9.8,10.7-5.4,16.6c2.2,3,5.3,4.5,9.1,4.5
	c1.2,0,2.4,0,3.6,0C9.5,33,9.5,44.4,14.8,55.8c-1.6,0.1-3-0.1-4.5,0.2c-6.5,1.2-10.4,8.2-8.1,14.4c1.7,4.4,5.5,7,10.5,7
	c25.1,0,50.2,0,75.3,0c1,0,1.9-0.1,2.9-0.3C96.4,75.6,99.8,70.4,99,64.9L99,64.9z M65.2,3c7.2,0,14.3,0,21.5,0
	c4.4,0,7.9,3.4,7.9,7.7c0.1,4.3-3.3,7.8-7.6,7.9c-1.3,0-2.5,0-3.8,0c-0.4,0-0.6-0.1-0.8-0.4c-4.3-6.8-10.1-11.8-17.5-15
	c0,0-0.1-0.1-0.3-0.2C64.6,3,65.2,3,65.2,3z M18.8,3c10.5,0,21.1-0.1,31.6,0c8.9,0.1,16.7,3.3,23.3,9.4c5.3,4.8,8.8,10.6,10.6,17.5
	c1.2,4.7,1.4,9.4,0.7,14.1c-0.6,3.9-1.8,7.6-3.6,11.1c-0.3,0.5-0.6,0.7-1.1,0.7c-6.4,0-12.8,0-19.1,0h-0.9c0.7-0.5,1.2-0.8,1.7-1.2
	c5.2-4.1,7.9-9.4,7.9-16c-0.1-10.4-7.5-18-16.6-19.7c-1.3-0.2-2.6-0.3-4-0.3c-9.9,0-19.8,0-29.7,0h-1.1c4.5-4.9,4.1-11.3,0-15.5
	C18.5,2.9,18.6,3,18.8,3z M48.9,55.8c-8.9-0.3-16.5-7.7-16.5-17.2c0.1-9.4,7.5-17,17-17c9.7-0.1,17.4,7.7,17.3,17.3
	C66.6,48.2,58.9,56.1,48.9,55.8z M10.8,18.6c-4.4,0-7.8-3.4-7.8-7.8C2.9,6.5,6.4,3,10.7,3c4.3,0,7.8,3.4,7.9,7.7
	C18.6,15.1,15.2,18.6,10.8,18.6L10.8,18.6z M34.3,74.4c-7.4,0-14.8,0-22.1,0c-4.2,0-7.7-3.5-7.7-7.6c-0.1-4.4,3.2-7.8,7.5-8
	c1.3,0,2.6,0,4,0c0.4,0,0.7,0.2,0.9,0.5c3.1,4.9,7.1,8.9,12,12.1c1.6,1,3.2,1.9,5,2.7c0.2,0.1,0.4,0.2,0.5,0.2
	C34.3,74.3,34.3,74.4,34.3,74.4L34.3,74.4z M80.5,74.4c-10.6,0-21.1,0-31.7,0c-5.9,0-11.4-1.6-16.5-4.4c-6.5-3.7-11.6-8.8-14.8-15.5
	c-5.1-10.8-5-21.5,0.3-32.2c0.3-0.5,0.6-0.7,1.1-0.7c6.4,0,12.8,0,19.2,0h0.8c-0.8,0.6-1.6,1.2-2.3,1.8c-4.8,4.1-7.3,9.4-7.2,15.7
	c0.2,9.3,6.3,16.8,15.3,19.1c1.7,0.4,3.4,0.6,5.2,0.6c9.9,0,19.8,0,29.7,0c0.3,0,0.6,0,1.2,0c-2.2,2.3-3.4,4.8-3.3,7.8
	c0,3,1.2,5.5,3.2,7.7C80.7,74.5,80.5,74.4,80.5,74.4L80.5,74.4z M88.2,74.4c-4.3,0-7.8-3.6-7.7-7.9c0-4.3,3.6-7.8,7.9-7.7
	c4.3,0,7.8,3.5,7.8,7.8C96.1,70.9,92.5,74.4,88.2,74.4z"/>
<g>
	<path class="st0" d="M156.4,65.9c-1.1,0.2-2.1,0.3-3.2,0.3c-2.6,0-5.2-0.9-7.9-2.8c-2.5-1.7-4.3-3.9-5.3-6.4
		c-0.2-0.4-0.5-0.7-1-0.7c-4.1-0.6-7.6-2.7-10.2-6.5c-2.8-3.9-4.2-8.8-4.2-14.8c0-6.5,1.7-11.7,5-15.6c3.2-3.8,7.4-5.7,12.7-5.7
		s9.5,1.9,12.8,5.8s4.9,9,4.9,15.6c0,5.9-1.3,10.7-4,14.5c-2.6,3.7-6.1,6-10.3,6.7c-0.2,0-0.2,0.1-0.2,0.3c0.8,1.7,2.1,3,3.9,3.9
		c1.8,0.9,4.3,1.3,7.6,1c1.8-0.1,2.9,0.5,3.4,1.8c0.4,1.3-0.3,2.1-2.4,2.4L156.4,65.9L156.4,65.9z M133.3,47.6
		c2.2,3.1,5.2,4.7,8.9,4.7s6.7-1.6,8.9-4.7s3.4-7.3,3.4-12.5s-1.1-9.3-3.4-12.3c-2.2-3-5.2-4.5-9-4.5s-6.7,1.5-8.9,4.5
		s-3.3,7.1-3.3,12.3S131,44.5,133.3,47.6L133.3,47.6z"/>
	<path class="st0" d="M176.6,55.8c-1.6-0.5-2.1-1.7-1.4-3.6l11.9-35.3c0.6-1.6,1.7-2.5,3.5-2.5h0.5c1.8,0,2.9,0.8,3.5,2.5l11.9,35.3
		c0.6,1.8,0.1,3-1.5,3.6c-1.7,0.5-2.8-0.2-3.4-2l-3.2-10.1c-0.1-0.3-0.3-0.5-0.7-0.5h-14.1c-0.3,0-0.6,0.2-0.7,0.5l-3.2,10.1
		C179.3,55.7,178.2,56.3,176.6,55.8L176.6,55.8z M184.6,38.8c0,0.2,0,0.3,0.2,0.3h11.9c0.2,0,0.3-0.1,0.2-0.3L191,19.3
		c-0.1-0.3-0.2-0.5-0.3-0.5s-0.2,0.2-0.3,0.5L184.6,38.8z"/>
	<path class="st0" d="M272,58.5c-1.1,1-2.4,0.9-3.7-0.6c-2.2-2.5-4.3-7.9-6.1-16.3c-1.5-6.7-2.6-15.6-3.2-26.9
		c0-0.2-0.1-0.3-0.3-0.2l-10,1.4c-0.3,0-0.4,0.2-0.4,0.5v8.6c0,5.6-0.2,10.1-0.7,13.5c-0.8,5.4-2.2,10-4.3,13.9
		c-0.1,0.2,0,0.2,0.2,0.2l10.6-2.2c0.2,0,0.2-0.2,0.2-0.3l-2.3-5.3c-0.8-1.8-0.6-2.9,0.4-3.4s2,0.2,2.9,1.9c2.4,5,4.1,9.1,5.1,12.3
		c0.6,1.9,0.3,3-1,3.4c-1.2,0.4-2.1-0.3-2.8-2.1l-0.9-2.8c-0.1-0.2-0.2-0.3-0.4-0.3l-10.8,2.5c-0.9,0.2-1.9,0.5-2.8,0.7
		c-0.9,0.2-1.4,0.4-1.8,0.7c-0.3,0.2-0.9-0.2-1.9-1.3c-1-1.1-0.9-2.3,0.3-3.8c2.2-2.7,3.9-7,4.9-12.7c0.6-3.3,0.9-8.3,0.9-14.8v-8
		c0-0.2-0.1-0.3-0.3-0.3l-10.2,1c-0.2,0-0.3,0.2-0.3,0.4v7.4c0,15.6-2.2,26.4-6.7,32.5c-1.2,1.6-2.3,2-3.5,1.1
		c-1.2-0.9-1.2-2.1,0-3.7c2-2.7,3.6-7.3,4.9-13.9c0.8-4.4,1.2-9.8,1.2-16v-8.2c0-1.9,1-2.9,2.9-3.1c4.5-0.3,9.8-0.9,16.1-1.8
		c6.6-0.9,11.4-1.7,14.2-2.4c1.9-0.4,3,0,3.3,1.2c0.3,1.3-0.6,2.2-2.5,2.5c-0.3,0-0.5,0.2-0.5,0.4c0.6,10.6,1.6,19,3,25.4
		c1.8,8.1,3.7,13.2,5.8,15.4C273,56.2,273.1,57.4,272,58.5z"/>
	<path class="st0" d="M288.9,59.7c-1.4,0-2.1-1-2.1-2.9V15.5c0-1.9,1-2.9,2.9-2.9h39.4c2,0,2.9,1,2.9,2.9v41.2c0,2-0.7,2.9-2.1,2.9
		s-2.1-1-2.1-2.9v-0.2c0-0.2-0.1-0.3-0.3-0.3h-36.3c-0.2,0-0.3,0.1-0.3,0.3v0.2C290.9,58.7,290.3,59.7,288.9,59.7L288.9,59.7z
		 M290.9,31.8c0,0.2,0.1,0.3,0.3,0.3h15.4c0.2,0,0.3-0.1,0.3-0.3V16.9c0-0.2-0.1-0.3-0.3-0.3h-15.4c-0.2,0-0.3,0.1-0.3,0.3
		C290.9,16.9,290.9,31.8,290.9,31.8z M290.9,51.8c0,0.2,0.1,0.3,0.3,0.3h15.4c0.2,0,0.3-0.1,0.3-0.3V36.5c0-0.2-0.1-0.3-0.3-0.3
		h-15.4c-0.2,0-0.3,0.1-0.3,0.3V51.8z M311.1,31.8c0,0.2,0.1,0.3,0.3,0.3h16.2c0.2,0,0.3-0.1,0.3-0.3V16.9c0-0.2-0.1-0.3-0.3-0.3
		h-16.2c-0.2,0-0.3,0.1-0.3,0.3C311.1,16.9,311.1,31.8,311.1,31.8z M311.1,51.8c0,0.2,0.1,0.3,0.3,0.3h16.2c0.2,0,0.3-0.1,0.3-0.3
		V36.5c0-0.2-0.1-0.3-0.3-0.3h-16.2c-0.2,0-0.3,0.1-0.3,0.3V51.8z"/>
</g>
</svg>
